<svg version="1" xmlns="http://www.w3.org/2000/svg"
     width="346.667" height="346.667"
     viewBox="0 0 260 260">

  <!-- R -->
  <path d="
    M25 210
    L25 40
    L82 40
    Q112 40 125 55
    Q138 70 138 98
    Q138 135 105 148
    L145 210
    L108 210
    L74 156
    L58 156
    L58 210
    Z

    M58 68
    L58 128
    L82 128
    Q98 128 104 121
    Q110 114 110 99
    Q110 84 103 76
    Q96 68 81 68
    Z
  " fill="black"/>

  <!-- M -->
  <path d="
    M150 210
    L150 40
    L178 40
    L205 135
    L232 40
    L260 40
    L260 210
    L236 210
    L236 95
    L210 185
    L198 185
    L172 95
    L172 210
    Z
  " fill="black"/>

</svg>